<?xml version="1.0" encoding="UTF-8"?><svg id="Calque_2" xmlns="http://www.w3.org/2000/svg" viewBox="0 0 33 33.09"><defs><style>.cls-1{fill:#fff;stroke-width:0px;}</style></defs><g id="Calque_1-2"><path class="cls-1" d="m16.5,8.04c-1.17,0-2.28.21-3.31.64-1.03.46-1.93,1.07-2.69,1.85-.76.77-1.37,1.66-1.83,2.66-.43,1.03-.64,2.13-.64,3.31s.21,2.28.64,3.31c.46,1.03,1.07,1.93,1.83,2.71.76.77,1.65,1.37,2.69,1.8,1.03.46,2.13.69,3.31.69h0c1.17,0,2.28-.23,3.31-.69,1.03-.43,1.93-1.03,2.69-1.8s1.37-1.68,1.83-2.71c.43-1.03.64-2.13.64-3.31s-.21-2.28-.64-3.31c-.46-1-1.07-1.89-1.83-2.66s-1.65-1.39-2.69-1.85c-1.03-.43-2.13-.64-3.31-.64h0Zm0,13.96c-1.52,0-2.81-.54-3.89-1.61-1.07-1.07-1.61-2.37-1.61-3.89s.54-2.81,1.61-3.89c1.07-1.07,2.37-1.61,3.89-1.61h0c1.52,0,2.81.54,3.89,1.61,1.07,1.07,1.61,2.37,1.61,3.89s-.54,2.81-1.61,3.89-2.37,1.61-3.89,1.61h0Zm10.79-14.27c0,.54-.19,1.01-.58,1.4s-.85.58-1.4.58-1.01-.19-1.4-.58-.58-.85-.58-1.4.19-1.01.58-1.4c.39-.39.85-.58,1.4-.58s1.01.19,1.4.58c.39.39.58.85.58,1.4Zm4.86-2.02c-.43-1.12-1.06-2.09-1.89-2.92-.83-.83-1.79-1.46-2.88-1.89h-.04c-.6-.23-1.24-.42-1.91-.56-.67-.14-1.37-.21-2.08-.21h-.04c-.86-.06-1.65-.09-2.36-.11-.72-.01-2.19-.02-4.43-.02s-3.71,0-4.43.02c-.72.01-1.5.05-2.36.11-.72,0-1.42.07-2.11.21-.69.14-1.35.33-1.98.56h.09c-1.12.43-2.09,1.06-2.92,1.89-.83.83-1.46,1.79-1.89,2.88l-.04.04c-.23.6-.41,1.24-.54,1.91-.13.67-.21,1.37-.24,2.08H.09c-.03.89-.05,1.68-.06,2.38-.01.7-.02,2.17-.02,4.4s0,3.75.02,4.45c.01.7.04,1.5.06,2.38.03.69.11,1.37.24,2.04.13.67.31,1.32.54,1.96.46,1.12,1.1,2.09,1.93,2.92.83.83,1.78,1.46,2.84,1.89h.09c.57.26,1.2.46,1.87.6.67.14,1.37.23,2.08.26h.04c.89.03,1.68.05,2.38.06.7.01,2.17.02,4.4.02s3.71,0,4.43-.02c.72-.01,1.52-.04,2.41-.06.72-.03,1.42-.11,2.11-.24s1.35-.32,1.98-.58l-.09.04c1.12-.46,2.09-1.1,2.92-1.91s1.46-1.77,1.89-2.86v-.09c.26-.63.45-1.28.58-1.96.13-.67.19-1.35.19-2.04.03-.89.05-1.68.06-2.38s.02-2.17.02-4.4v-4.43c0-.72-.03-1.5-.09-2.36,0-.74-.07-1.47-.21-2.17-.14-.7-.34-1.37-.6-2l.04.09Zm-2.23,17.49c0,.54-.05,1.08-.15,1.61-.1.53-.25,1.04-.45,1.53l.04-.04c-.29.72-.7,1.35-1.25,1.89s-1.16.95-1.85,1.2l-.04.04c-.46.17-.95.31-1.46.41s-1.05.15-1.59.15h0c-.89.03-1.67.05-2.34.06-.67.01-2.13.02-4.36.02h-4.36c-.67,0-1.45-.03-2.34-.09-.57,0-1.12-.05-1.63-.15-.52-.1-1.02-.25-1.5-.45l.04.04c-.72-.29-1.35-.7-1.89-1.25-.54-.54-.96-1.16-1.25-1.85v-.04c-.17-.46-.31-.95-.41-1.46-.1-.52-.15-1.05-.15-1.59v-.04c-.06-.86-.09-1.63-.09-2.32v-8.7c0-.67.03-1.45.09-2.34,0-.57.05-1.12.15-1.65.1-.53.25-1.04.45-1.53l-.04.09c.29-.74.7-1.39,1.25-1.93.54-.54,1.17-.95,1.89-1.2.46-.17.95-.31,1.46-.41.52-.1,1.06-.16,1.63-.19h0c.86-.03,1.63-.05,2.32-.06.69-.01,2.15-.02,4.38-.02s3.69,0,4.36.02c.67.01,1.45.04,2.34.06.54.03,1.07.09,1.59.19.52.1,1.02.24,1.5.41h-.04c.72.29,1.35.69,1.89,1.22.54.53.96,1.15,1.25,1.87v.04c.17.43.31.91.41,1.44.1.53.15,1.07.15,1.61h0c.03.86.05,1.63.06,2.32.01.69.02,2.15.02,4.38v4.36c0,.67-.01,1.45-.04,2.34h-.04Z"/></g></svg>