<?xml version="1.0" encoding="UTF-8"?><svg id="Calque_2" xmlns="http://www.w3.org/2000/svg" viewBox="0 0 36.7 25.65"><defs><style>.cls-1{fill:#fff;stroke-width:0px;}</style></defs><g id="Calque_1-2"><path class="cls-1" d="m35.92,4.04c-.2-.8-.59-1.49-1.16-2.06-.57-.57-1.25-.97-2.02-1.2h-.04c-.72-.2-1.86-.34-3.44-.43-1.6-.11-3.21-.2-4.81-.26-1.6-.06-3.02-.09-4.25-.09h-3.7c-1.23,0-2.65.02-4.25.06-1.6.04-3.21.12-4.81.24-1.58.09-2.72.23-3.44.43-.8.23-1.49.63-2.06,1.2-.57.57-.96,1.25-1.16,2.02v.04C.37,5.43.14,7.25.09,9.47c-.06,2.22-.09,3.33-.09,3.33,0,0,.03,1.12.09,3.35.06,2.23.27,4.05.64,5.46.2.8.59,1.49,1.18,2.06.59.57,1.27.97,2.04,1.2.74.2,1.9.34,3.48.43,1.58.11,3.17.2,4.79.26,1.62.06,3.04.09,4.28.09h3.65c1.23,0,2.66-.02,4.28-.06s3.22-.12,4.79-.24c1.58-.09,2.72-.23,3.44-.43.8-.2,1.49-.59,2.06-1.16s.97-1.25,1.2-2.02v-.04c.37-1.43.59-3.26.67-5.48.07-2.22.11-3.33.11-3.33,0,0-.03-1.12-.09-3.35-.06-2.23-.29-4.07-.69-5.5Zm-21.27,14.27l.04-11,9.54,5.54-9.58,5.46Z"/></g></svg>